<svg width="25" height="25" viewBox="0 0 25 25" fill="none" xmlns="http://www.w3.org/2000/svg">
<g id="Frame" clip-path="url(#clip0_4881_21161)">
<g id="view-module">
<g id="tips/plus-circle">
<path id="Vector" fill-rule="evenodd" clip-rule="evenodd" d="M12.5002 4.16665C7.89779 4.16665 4.16683 7.89761 4.16683 12.5C4.16683 17.1024 7.89779 20.8333 12.5002 20.8333C17.1025 20.8333 20.8335 17.1024 20.8335 12.5C20.8335 7.89761 17.1025 4.16665 12.5002 4.16665ZM2.0835 12.5C2.0835 6.74701 6.7472 2.08331 12.5002 2.08331C18.2531 2.08331 22.9168 6.74701 22.9168 12.5C22.9168 18.2529 18.2531 22.9166 12.5002 22.9166C6.7472 22.9166 2.0835 18.2529 2.0835 12.5ZM13.5418 11.4583V8.33331H11.4585V11.4583H8.33403L8.33353 13.5416H11.4585V16.6666H13.5418V13.5416H16.6663L16.6668 11.4583H13.5418Z" fill="#ACACAC"/>
</g>
</g>
</g>
<defs>
<clipPath id="clip0_4881_21161">
<rect width="25" height="25" fill="white"/>
</clipPath>
</defs>
</svg>
