<svg width="25" height="25" viewBox="0 0 25 25" fill="none" xmlns="http://www.w3.org/2000/svg">
<g id="Frame" clip-path="url(#clip0_4882_21220)">
<g id="view-module">
<g id="view-module_2">
<path d="M6.25 11.7187L17.1875 11.7188V13.2813L6.25 13.2812V11.7187Z" fill="#ACACAC"/>
<path d="M15.625 15.625L6.25 15.625V17.1875H15.625V15.625Z" fill="#ACACAC"/>
<path d="M3.125 4.6875C3.125 3.82455 3.82456 3.125 4.6875 3.125H20.3125C21.1754 3.125 21.875 3.82456 21.875 4.6875V20.3125C21.875 21.1754 21.1754 21.875 20.3125 21.875H4.6875C3.82455 21.875 3.125 21.1754 3.125 20.3125V4.6875ZM4.6875 4.6875L4.6875 7.8125H20.3125V4.6875H4.6875ZM4.6875 9.375L4.6875 20.3125H20.3125V9.375H4.6875Z" fill="#ACACAC"/>
</g>
</g>
</g>
<defs>
<clipPath id="clip0_4882_21220">
<rect width="25" height="25" fill="white"/>
</clipPath>
</defs>
</svg>
