<svg width="25" height="25" viewBox="0 0 25 25" fill="none" xmlns="http://www.w3.org/2000/svg">
<g id="Frame" clip-path="url(#clip0_4882_21179)">
<g id="general/user">
<path id="Vector" fill-rule="evenodd" clip-rule="evenodd" d="M9.37484 7.81249C9.37484 6.0866 10.7739 4.68749 12.4998 4.68749C14.2257 4.68749 15.6248 6.0866 15.6248 7.81249C15.6248 9.53838 14.2257 10.9375 12.4998 10.9375C10.7739 10.9375 9.37484 9.53838 9.37484 7.81249ZM12.4998 2.60416C9.62335 2.60416 7.2915 4.93601 7.2915 7.81249C7.2915 10.689 9.62335 13.0208 12.4998 13.0208C15.3763 13.0208 17.7082 10.689 17.7082 7.81249C17.7082 4.93601 15.3763 2.60416 12.4998 2.60416ZM8.33317 14.0625C6.83399 14.0625 5.4115 14.5193 4.34559 15.4216C3.26315 16.3379 2.604 17.6705 2.604 19.2708V20.8333C2.604 21.6963 3.30356 22.3958 4.1665 22.3958H20.8332C21.6961 22.3958 22.3957 21.6963 22.3957 20.8333V19.2708C22.3957 17.6705 21.7365 16.3379 20.6541 15.4216C19.5882 14.5193 18.1657 14.0625 16.6665 14.0625H8.33317ZM4.68734 19.2708C4.68734 18.2823 5.07752 17.5316 5.69163 17.0117C6.32225 16.4779 7.24352 16.1458 8.33317 16.1458H16.6665C17.7562 16.1458 18.6774 16.4779 19.3081 17.0117C19.9222 17.5316 20.3123 18.2823 20.3123 19.2708V20.3125H4.68734V19.2708Z" fill="#ACACAC"/>
</g>
</g>
<defs>
<clipPath id="clip0_4882_21179">
<rect width="25" height="25" fill="white"/>
</clipPath>
</defs>
</svg>
